<svg xmlns="http://www.w3.org/2000/svg" width="210.677" height="34.815" viewBox="0 0 210.677 34.815"><g transform="translate(-441 -244)"><path d="M38.321,15.426H26.01L22.269,4.262a1.356,1.356,0,0,0-2.544,0L15.984,15.426H3.589A1.343,1.343,0,0,0,2.25,16.765a.984.984,0,0,0,.025.226,1.287,1.287,0,0,0,.561.946l10.118,7.13L9.071,36.357a1.343,1.343,0,0,0,.46,1.506,1.3,1.3,0,0,0,.753.326,1.641,1.641,0,0,0,.837-.3L21,30.851l9.875,7.038a1.568,1.568,0,0,0,.837.3,1.2,1.2,0,0,0,.745-.326,1.326,1.326,0,0,0,.46-1.506l-3.883-11.29,10.034-7.2.243-.209a1.4,1.4,0,0,0,.435-.9A1.417,1.417,0,0,0,38.321,15.426Z" transform="translate(438.75 240.625)" fill="#fa364b"/><path d="M38.321,15.426H26.01L22.269,4.262a1.356,1.356,0,0,0-2.544,0L15.984,15.426H3.589A1.343,1.343,0,0,0,2.25,16.765a.984.984,0,0,0,.025.226,1.287,1.287,0,0,0,.561.946l10.118,7.13L9.071,36.357a1.343,1.343,0,0,0,.46,1.506,1.3,1.3,0,0,0,.753.326,1.641,1.641,0,0,0,.837-.3L21,30.851l9.875,7.038a1.568,1.568,0,0,0,.837.3,1.2,1.2,0,0,0,.745-.326,1.326,1.326,0,0,0,.46-1.506l-3.883-11.29,10.034-7.2.243-.209a1.4,1.4,0,0,0,.435-.9A1.417,1.417,0,0,0,38.321,15.426Z" transform="translate(482.195 240.625)" fill="#fa364b"/><path d="M38.321,15.426H26.01L22.269,4.262a1.356,1.356,0,0,0-2.544,0L15.984,15.426H3.589A1.343,1.343,0,0,0,2.25,16.765a.984.984,0,0,0,.025.226,1.287,1.287,0,0,0,.561.946l10.118,7.13L9.071,36.357a1.343,1.343,0,0,0,.46,1.506,1.3,1.3,0,0,0,.753.326,1.641,1.641,0,0,0,.837-.3L21,30.851l9.875,7.038a1.568,1.568,0,0,0,.837.3,1.2,1.2,0,0,0,.745-.326,1.326,1.326,0,0,0,.46-1.506l-3.883-11.29,10.034-7.2.243-.209a1.4,1.4,0,0,0,.435-.9A1.417,1.417,0,0,0,38.321,15.426Z" transform="translate(525.044 240.625)" fill="#fa364b"/><path d="M38.321,15.426H26.01L22.269,4.262a1.356,1.356,0,0,0-2.544,0L15.984,15.426H3.589A1.343,1.343,0,0,0,2.25,16.765a.984.984,0,0,0,.025.226,1.287,1.287,0,0,0,.561.946l10.118,7.13L9.071,36.357a1.343,1.343,0,0,0,.46,1.506,1.3,1.3,0,0,0,.753.326,1.641,1.641,0,0,0,.837-.3L21,30.851l9.875,7.038a1.568,1.568,0,0,0,.837.3,1.2,1.2,0,0,0,.745-.326,1.326,1.326,0,0,0,.46-1.506l-3.883-11.29,10.034-7.2.243-.209a1.4,1.4,0,0,0,.435-.9A1.417,1.417,0,0,0,38.321,15.426Z" transform="translate(568.489 240.625)" fill="#fa364b"/><path d="M38.321,15.426H26.01L22.269,4.262a1.356,1.356,0,0,0-2.544,0L15.984,15.426H3.589A1.343,1.343,0,0,0,2.25,16.765a.984.984,0,0,0,.025.226,1.287,1.287,0,0,0,.561.946l10.118,7.13L9.071,36.357a1.343,1.343,0,0,0,.46,1.506,1.3,1.3,0,0,0,.753.326,1.641,1.641,0,0,0,.837-.3L21,30.851l9.875,7.038a1.568,1.568,0,0,0,.837.3,1.2,1.2,0,0,0,.745-.326,1.326,1.326,0,0,0,.46-1.506l-3.883-11.29,10.034-7.2.243-.209a1.4,1.4,0,0,0,.435-.9A1.417,1.417,0,0,0,38.321,15.426Z" transform="translate(611.933 240.625)" fill="#fa364b"/><path d="M38.321,15.426H26.01L22.269,4.262a1.356,1.356,0,0,0-2.544,0L15.984,15.426H3.589A1.343,1.343,0,0,0,2.25,16.765a.984.984,0,0,0,.025.226,1.287,1.287,0,0,0,.561.946l10.118,7.13L9.071,36.357a1.343,1.343,0,0,0,.46,1.506,1.3,1.3,0,0,0,.753.326,1.641,1.641,0,0,0,.837-.3L21,30.851l9.875,7.038a1.568,1.568,0,0,0,.837.3,1.2,1.2,0,0,0,.745-.326,1.326,1.326,0,0,0,.46-1.506l-3.883-11.29,10.034-7.2.243-.209a1.4,1.4,0,0,0,.435-.9A1.417,1.417,0,0,0,38.321,15.426ZM27.675,23.168a2.35,2.35,0,0,0-.854,2.661l2.519,7.34a.336.336,0,0,1-.511.385l-6.478-4.62a2.338,2.338,0,0,0-1.364-.435,2.3,2.3,0,0,0-1.356.435l-6.478,4.611a.335.335,0,0,1-.511-.385l2.519-7.34a2.358,2.358,0,0,0-.862-2.678L7.522,18.364a.336.336,0,0,1,.192-.611h8.26a2.34,2.34,0,0,0,2.218-1.6L20.67,8.773a.337.337,0,0,1,.636,0l2.477,7.381A2.34,2.34,0,0,0,26,17.753h8.143a.331.331,0,0,1,.192.6Z" transform="translate(611.934 240.625)" fill="#fa364b"/></g></svg>