<svg xmlns="http://www.w3.org/2000/svg" width="529.115" height="368.571" viewBox="0 0 529.115 368.571"><g transform="translate(-1093 -2023.954)"><g transform="translate(1093 2028.246)" opacity="0.4"><g transform="translate(108.628)"><g transform="translate(0 31.343)"><g transform="translate(4.866 48.232)"><path d="M79.3,59.75V63.9h3.292V55.6H79.3Z" transform="translate(-79.3 -55.6)" fill="#39b54a"/></g><g transform="translate(9.732 42.22)"><path d="M82.7,61.562V71.58h3.149V51.4H82.7Z" transform="translate(-82.7 -51.4)" fill="#39b54a"/></g><g transform="translate(14.598 23.901)"><path d="M86.1,67.081V95.562h3.149V38.6H86.1Z" transform="translate(-86.1 -38.6)" fill="#39b54a"/></g><g transform="translate(0 49.233)"><path d="M75.9,59.449V62.6h3.292V56.3H75.9Z" transform="translate(-75.9 -56.3)" fill="#39b54a"/></g><g transform="translate(19.464 7.442)"><path d="M89.5,72.04v44.94h3.149V27.1H89.5Z" transform="translate(-89.5 -27.1)" fill="#39b54a"/></g><g transform="translate(24.33 29.912)"><path d="M92.9,65.27V87.74h3.149V42.8H92.9Z" transform="translate(-92.9 -42.8)" fill="#39b54a"/></g><g transform="translate(29.053 46.943)"><path d="M96.2,60.139v5.3h3.292V54.7H96.2Z" transform="translate(-96.2 -54.7)" fill="#39b54a"/></g><g transform="translate(33.919 26.048)"><path d="M99.6,66.434V92.768h3.292V40.1H99.6Z" transform="translate(-99.6 -40.1)" fill="#39b54a"/></g><g transform="translate(38.786 10.305)"><path d="M103,71.177v42.077h3.292V29.1H103Z" transform="translate(-103 -29.1)" fill="#39b54a"/></g><g transform="translate(43.652)"><path d="M106.4,74.282v52.382h3.292V21.9H106.4Z" transform="translate(-106.4 -21.9)" fill="#39b54a"/></g><g transform="translate(48.518 35.78)"><path d="M109.8,63.5V80.1h3.292V46.9H109.8Z" transform="translate(-109.8 -46.9)" fill="#39b54a"/></g><g transform="translate(53.384 44.081)"><path d="M113.2,61v8.3h3.149V52.7H113.2Z" transform="translate(-113.2 -52.7)" fill="#39b54a"/></g><g transform="translate(58.25 50.235)"><path d="M116.6,59.147v2.147h3.149V57H116.6Z" transform="translate(-116.6 -57)" fill="#39b54a"/></g><g transform="translate(63.116 35.78)"><path d="M120,63.5V80.1h3.149V46.9H120Z" transform="translate(-120 -46.9)" fill="#39b54a"/></g><g transform="translate(67.839 24.903)"><path d="M123.3,66.779V94.258h3.292V39.3H123.3Z" transform="translate(-123.3 -39.3)" fill="#39b54a"/></g><g transform="translate(72.705 10.305)"><path d="M126.7,71.177v42.077h3.292V29.1H126.7Z" transform="translate(-126.7 -29.1)" fill="#39b54a"/></g><g transform="translate(77.571 29.912)"><path d="M130.1,42.8V87.74h3.292V42.8Z" transform="translate(-130.1 -42.8)" fill="#39b54a"/></g><g transform="translate(83.153 42.22)"><path d="M134,61.562V71.58h3.292V51.4H134Z" transform="translate(-134 -51.4)" fill="#39b54a"/></g><g transform="translate(88.019 45.798)"><path d="M137.4,53.9V67.067h3.292V53.9Z" transform="translate(-137.4 -53.9)" fill="#39b54a"/></g><g transform="translate(93.601 48.232)"><path d="M141.3,59.75V63.9h3.292V55.6H141.3Z" transform="translate(-141.3 -55.6)" fill="#39b54a"/></g><g transform="translate(98.467 49.233)"><path d="M144.7,56.3v6.3h3.292V56.3Z" transform="translate(-144.7 -56.3)" fill="#39b54a"/></g></g><rect width="3.006" height="110.775" transform="translate(58.25 26.191)" fill="#39b54a"/><rect width="3.006" height="166.878" transform="translate(29.197)" fill="#39b54a"/><rect width="3.006" height="83.153" transform="translate(0.143 41.934)" fill="#39b54a"/><rect width="3.006" height="55.244" transform="translate(93.744 57.248)" fill="#39b54a"/></g><g transform="translate(0 31.343)"><g transform="translate(9.732 48.232)"><path d="M6.8,59.75V63.9H9.949V55.6H6.8Z" transform="translate(-6.8 -55.6)" fill="#39b54a"/></g><g transform="translate(14.598 42.22)"><path d="M10.2,61.562V71.58h3.149V51.4H10.2Z" transform="translate(-10.2 -51.4)" fill="#39b54a"/></g><g transform="translate(19.464 23.901)"><path d="M13.6,67.081V95.562h3.149V38.6H13.6Z" transform="translate(-13.6 -38.6)" fill="#39b54a"/></g><g transform="translate(0 50.951)"><path d="M0,58.931v1.431H3.292V57.5H0Z" transform="translate(0 -57.5)" fill="#39b54a"/></g><g transform="translate(4.866 49.233)"><path d="M3.4,59.449V62.6H6.549V56.3H3.4Z" transform="translate(-3.4 -56.3)" fill="#39b54a"/></g><g transform="translate(24.187 7.442)"><path d="M16.9,72.04v44.94h3.292V27.1H16.9Z" transform="translate(-16.9 -27.1)" fill="#39b54a"/></g><g transform="translate(29.053 29.912)"><path d="M20.3,65.27V87.74h3.292V42.8H20.3Z" transform="translate(-20.3 -42.8)" fill="#39b54a"/></g><g transform="translate(33.919 46.943)"><path d="M23.7,60.139v5.3h3.292V54.7H23.7Z" transform="translate(-23.7 -54.7)" fill="#39b54a"/></g><g transform="translate(38.786 26.048)"><path d="M27.1,66.434V92.768h3.292V40.1H27.1Z" transform="translate(-27.1 -40.1)" fill="#39b54a"/></g><g transform="translate(43.652 10.305)"><path d="M30.5,71.177v42.077h3.292V29.1H30.5Z" transform="translate(-30.5 -29.1)" fill="#39b54a"/></g><g transform="translate(48.518)"><path d="M33.9,74.282v52.382h3.149V21.9H33.9Z" transform="translate(-33.9 -21.9)" fill="#39b54a"/></g><g transform="translate(53.384 35.78)"><path d="M37.3,63.5V80.1h3.149V46.9H37.3Z" transform="translate(-37.3 -46.9)" fill="#39b54a"/></g><g transform="translate(58.25 44.081)"><path d="M40.7,61v8.3h3.149V52.7H40.7Z" transform="translate(-40.7 -52.7)" fill="#39b54a"/></g><g transform="translate(63.116 50.235)"><path d="M44.1,59.147v2.147h3.149V57H44.1Z" transform="translate(-44.1 -57)" fill="#39b54a"/></g><g transform="translate(67.839 35.78)"><path d="M47.4,63.5V80.1h3.292V46.9H47.4Z" transform="translate(-47.4 -46.9)" fill="#39b54a"/></g><g transform="translate(72.705 24.903)"><path d="M50.8,66.779V94.258h3.292V39.3H50.8Z" transform="translate(-50.8 -39.3)" fill="#39b54a"/></g><g transform="translate(77.571 10.305)"><path d="M54.2,71.177v42.077h3.292V29.1H54.2Z" transform="translate(-54.2 -29.1)" fill="#39b54a"/></g><g transform="translate(82.437 29.912)"><path d="M57.6,42.8V87.74h3.292V42.8Z" transform="translate(-57.6 -42.8)" fill="#39b54a"/></g><g transform="translate(88.019 42.22)"><path d="M61.5,61.562V71.58h3.292V51.4H61.5Z" transform="translate(-61.5 -51.4)" fill="#39b54a"/></g><g transform="translate(92.885 45.798)"><path d="M64.9,53.9V67.067h3.292V53.9Z" transform="translate(-64.9 -53.9)" fill="#39b54a"/></g><g transform="translate(98.467 48.232)"><path d="M68.8,59.75V63.9h3.292V55.6H68.8Z" transform="translate(-68.8 -55.6)" fill="#39b54a"/></g><g transform="translate(103.333 49.233)"><path d="M72.2,56.3v6.3h3.149V56.3Z" transform="translate(-72.2 -56.3)" fill="#39b54a"/></g></g><rect width="3.006" height="110.775" transform="translate(63.116 26.191)" fill="#39b54a"/><rect width="3.006" height="166.878" transform="translate(34.063)" fill="#39b54a"/><rect width="3.006" height="83.153" transform="translate(4.866 41.934)" fill="#39b54a"/><rect width="3.006" height="55.244" transform="translate(98.61 57.248)" fill="#39b54a"/><g transform="translate(213.249)"><g transform="translate(0 31.343)"><g transform="translate(4.866 48.232)"><path d="M152.4,59.75V63.9h3.292V55.6H152.4Z" transform="translate(-152.4 -55.6)" fill="#39b54a"/></g><g transform="translate(9.732 42.22)"><path d="M155.8,61.562V71.58h3.149V51.4H155.8Z" transform="translate(-155.8 -51.4)" fill="#39b54a"/></g><g transform="translate(14.598 23.901)"><path d="M159.2,67.081V95.562h3.149V38.6H159.2Z" transform="translate(-159.2 -38.6)" fill="#39b54a"/></g><g transform="translate(0 49.233)"><path d="M149,59.449V62.6h3.292V56.3H149Z" transform="translate(-149 -56.3)" fill="#39b54a"/></g><g transform="translate(19.464 7.442)"><path d="M162.6,72.04v44.94h3.149V27.1H162.6Z" transform="translate(-162.6 -27.1)" fill="#39b54a"/></g><g transform="translate(24.33 29.912)"><path d="M166,65.27V87.74h3.149V42.8H166Z" transform="translate(-166 -42.8)" fill="#39b54a"/></g><g transform="translate(29.053 46.943)"><path d="M169.3,60.139v5.3h3.292V54.7H169.3Z" transform="translate(-169.3 -54.7)" fill="#39b54a"/></g><g transform="translate(33.919 26.048)"><path d="M172.7,66.434V92.768h3.292V40.1H172.7Z" transform="translate(-172.7 -40.1)" fill="#39b54a"/></g><g transform="translate(38.786 10.305)"><path d="M176.1,71.177v42.077h3.292V29.1H176.1Z" transform="translate(-176.1 -29.1)" fill="#39b54a"/></g><g transform="translate(43.652)"><path d="M179.5,74.282v52.382h3.292V21.9H179.5Z" transform="translate(-179.5 -21.9)" fill="#39b54a"/></g><g transform="translate(48.518 35.78)"><path d="M182.9,63.5V80.1h3.292V46.9H182.9Z" transform="translate(-182.9 -46.9)" fill="#39b54a"/></g><g transform="translate(53.384 44.081)"><path d="M186.3,61v8.3h3.149V52.7H186.3Z" transform="translate(-186.3 -52.7)" fill="#39b54a"/></g><g transform="translate(58.25 50.235)"><path d="M189.7,59.147v2.147h3.149V57H189.7Z" transform="translate(-189.7 -57)" fill="#39b54a"/></g><g transform="translate(63.116 35.78)"><path d="M193.1,63.5V80.1h3.149V46.9H193.1Z" transform="translate(-193.1 -46.9)" fill="#39b54a"/></g><g transform="translate(67.839 24.903)"><path d="M196.4,66.779V94.258h3.292V39.3H196.4Z" transform="translate(-196.4 -39.3)" fill="#39b54a"/></g><g transform="translate(72.705 10.305)"><path d="M199.8,71.177v42.077h3.292V29.1H199.8Z" transform="translate(-199.8 -29.1)" fill="#39b54a"/></g><g transform="translate(77.571 29.912)"><path d="M203.2,42.8V87.74h3.292V42.8Z" transform="translate(-203.2 -42.8)" fill="#39b54a"/></g><g transform="translate(83.153 42.22)"><path d="M207.1,61.562V71.58h3.292V51.4H207.1Z" transform="translate(-207.1 -51.4)" fill="#39b54a"/></g><g transform="translate(88.019 45.798)"><path d="M210.5,53.9V67.067h3.292V53.9Z" transform="translate(-210.5 -53.9)" fill="#39b54a"/></g><g transform="translate(93.601 48.232)"><path d="M214.4,59.75V63.9h3.292V55.6H214.4Z" transform="translate(-214.4 -55.6)" fill="#39b54a"/></g><g transform="translate(98.467 49.233)"><path d="M217.8,56.3v6.3h3.292V56.3Z" transform="translate(-217.8 -56.3)" fill="#39b54a"/></g></g><rect width="3.006" height="110.775" transform="translate(58.25 26.191)" fill="#39b54a"/><rect width="3.006" height="166.878" transform="translate(29.197)" fill="#39b54a"/><rect width="3.006" height="83.153" transform="translate(0.143 41.934)" fill="#39b54a"/><rect width="3.006" height="55.244" transform="translate(93.744 57.248)" fill="#39b54a"/></g><g transform="translate(317.584)"><g transform="translate(0 31.343)"><g transform="translate(4.866 48.232)"><path d="M225.3,59.75V63.9h3.149V55.6H225.3Z" transform="translate(-225.3 -55.6)" fill="#39b54a"/></g><g transform="translate(9.589 42.22)"><path d="M228.6,61.562V71.58h3.292V51.4H228.6Z" transform="translate(-228.6 -51.4)" fill="#39b54a"/></g><g transform="translate(14.455 23.901)"><path d="M232,67.081V95.562h3.292V38.6H232Z" transform="translate(-232 -38.6)" fill="#39b54a"/></g><g transform="translate(0 49.233)"><path d="M221.9,59.449V62.6h3.149V56.3H221.9Z" transform="translate(-221.9 -56.3)" fill="#39b54a"/></g><g transform="translate(19.321 7.442)"><path d="M235.4,72.04v44.94h3.292V27.1H235.4Z" transform="translate(-235.4 -27.1)" fill="#39b54a"/></g><g transform="translate(24.187 29.912)"><path d="M238.8,65.27V87.74h3.292V42.8H238.8Z" transform="translate(-238.8 -42.8)" fill="#39b54a"/></g><g transform="translate(29.053 46.943)"><path d="M242.2,60.139v5.3h3.292V54.7H242.2Z" transform="translate(-242.2 -54.7)" fill="#39b54a"/></g><g transform="translate(33.92 26.048)"><path d="M245.6,66.434V92.768h3.292V40.1H245.6Z" transform="translate(-245.6 -40.1)" fill="#39b54a"/></g><g transform="translate(38.786 10.305)"><path d="M249,71.177v42.077h3.149V29.1H249Z" transform="translate(-249 -29.1)" fill="#39b54a"/></g><g transform="translate(43.652)"><path d="M252.4,74.282v52.382h3.149V21.9H252.4Z" transform="translate(-252.4 -21.9)" fill="#39b54a"/></g><g transform="translate(48.518 35.78)"><path d="M255.8,63.5V80.1h3.149V46.9H255.8Z" transform="translate(-255.8 -46.9)" fill="#39b54a"/></g><g transform="translate(53.241 44.081)"><path d="M259.1,61v8.3h3.292V52.7H259.1Z" transform="translate(-259.1 -52.7)" fill="#39b54a"/></g><g transform="translate(58.107 50.235)"><path d="M262.5,59.147v2.147h3.292V57H262.5Z" transform="translate(-262.5 -57)" fill="#39b54a"/></g><g transform="translate(62.973 35.78)"><path d="M265.9,63.5V80.1h3.292V46.9H265.9Z" transform="translate(-265.9 -46.9)" fill="#39b54a"/></g><g transform="translate(67.839 24.903)"><path d="M269.3,66.779V94.258h3.292V39.3H269.3Z" transform="translate(-269.3 -39.3)" fill="#39b54a"/></g><g transform="translate(72.705 10.305)"><path d="M272.7,71.177v42.077h3.292V29.1H272.7Z" transform="translate(-272.7 -29.1)" fill="#39b54a"/></g><g transform="translate(77.571 29.912)"><path d="M276.1,42.8V87.74h3.149V42.8Z" transform="translate(-276.1 -42.8)" fill="#39b54a"/></g><g transform="translate(83.153 42.22)"><path d="M280,61.562V71.58h3.149V51.4H280Z" transform="translate(-280 -51.4)" fill="#39b54a"/></g><g transform="translate(88.019 45.798)"><path d="M283.4,53.9V67.067h3.149V53.9Z" transform="translate(-283.4 -53.9)" fill="#39b54a"/></g><g transform="translate(93.601 48.232)"><path d="M287.3,59.75V63.9h3.149V55.6H287.3Z" transform="translate(-287.3 -55.6)" fill="#39b54a"/></g><g transform="translate(98.467 49.233)"><path d="M290.7,56.3v6.3h3.149V56.3Z" transform="translate(-290.7 -56.3)" fill="#39b54a"/></g></g><rect width="3.006" height="110.775" transform="translate(58.25 26.191)" fill="#39b54a"/><rect width="3.006" height="166.878" transform="translate(29.197)" fill="#39b54a"/><rect width="3.006" height="83.153" transform="translate(0 41.934)" fill="#39b54a"/><rect width="3.006" height="55.244" transform="translate(93.601 57.248)" fill="#39b54a"/></g><g transform="translate(421.775)"><g transform="translate(0 31.343)"><g transform="translate(4.866 48.232)"><path d="M298.1,59.75V63.9h3.292V55.6H298.1Z" transform="translate(-298.1 -55.6)" fill="#39b54a"/></g><g transform="translate(9.732 42.22)"><path d="M301.5,61.562V71.58h3.149V51.4H301.5Z" transform="translate(-301.5 -51.4)" fill="#39b54a"/></g><g transform="translate(14.598 23.901)"><path d="M304.9,67.081V95.562h3.149V38.6H304.9Z" transform="translate(-304.9 -38.6)" fill="#39b54a"/></g><g transform="translate(0 49.233)"><path d="M294.7,59.449V62.6h3.292V56.3H294.7Z" transform="translate(-294.7 -56.3)" fill="#39b54a"/></g><g transform="translate(19.464 7.442)"><path d="M308.3,72.04v44.94h3.149V27.1H308.3Z" transform="translate(-308.3 -27.1)" fill="#39b54a"/></g><g transform="translate(24.187 29.912)"><path d="M311.6,65.27V87.74h3.292V42.8H311.6Z" transform="translate(-311.6 -42.8)" fill="#39b54a"/></g><g transform="translate(29.053 46.943)"><path d="M315,60.139v5.3h3.292V54.7H315Z" transform="translate(-315 -54.7)" fill="#39b54a"/></g><g transform="translate(33.919 26.048)"><path d="M318.4,66.434V92.768h3.292V40.1H318.4Z" transform="translate(-318.4 -40.1)" fill="#39b54a"/></g><g transform="translate(38.786 10.305)"><path d="M321.8,71.177v42.077h3.292V29.1H321.8Z" transform="translate(-321.8 -29.1)" fill="#39b54a"/></g><g transform="translate(43.652)"><path d="M325.2,74.282v52.382h3.292V21.9H325.2Z" transform="translate(-325.2 -21.9)" fill="#39b54a"/></g><g transform="translate(48.518 35.78)"><path d="M328.6,63.5V80.1h3.149V46.9H328.6Z" transform="translate(-328.6 -46.9)" fill="#39b54a"/></g><g transform="translate(53.384 44.081)"><path d="M332,61v8.3h3.149V52.7H332Z" transform="translate(-332 -52.7)" fill="#39b54a"/></g><g transform="translate(58.25 50.235)"><path d="M335.4,59.147v2.147h3.149V57H335.4Z" transform="translate(-335.4 -57)" fill="#39b54a"/></g><g transform="translate(63.116 35.78)"><path d="M338.8,63.5V80.1h3.149V46.9H338.8Z" transform="translate(-338.8 -46.9)" fill="#39b54a"/></g><g transform="translate(67.839 24.903)"><path d="M342.1,66.779V94.258h3.292V39.3H342.1Z" transform="translate(-342.1 -39.3)" fill="#39b54a"/></g><g transform="translate(72.705 10.305)"><path d="M345.5,71.177v42.077h3.292V29.1H345.5Z" transform="translate(-345.5 -29.1)" fill="#39b54a"/></g><g transform="translate(77.571 29.912)"><path d="M348.9,42.8V87.74h3.292V42.8Z" transform="translate(-348.9 -42.8)" fill="#39b54a"/></g><g transform="translate(83.153 42.22)"><path d="M352.8,61.562V71.58h3.292V51.4H352.8Z" transform="translate(-352.8 -51.4)" fill="#39b54a"/></g><g transform="translate(88.019 45.798)"><path d="M356.2,53.9V67.067h3.292V53.9Z" transform="translate(-356.2 -53.9)" fill="#39b54a"/></g><g transform="translate(93.601 48.232)"><path d="M360.1,59.75V63.9h3.292V55.6H360.1Z" transform="translate(-360.1 -55.6)" fill="#39b54a"/></g><g transform="translate(98.467 49.233)"><path d="M363.5,56.3v6.3h3.292V56.3Z" transform="translate(-363.5 -56.3)" fill="#39b54a"/></g><g transform="translate(104.048 50.951)"><path d="M367.4,58.931v1.431h3.292V57.5H367.4Z" transform="translate(-367.4 -57.5)" fill="#39b54a"/></g></g><rect width="3.006" height="110.775" transform="translate(58.25 26.191)" fill="#39b54a"/><rect width="3.006" height="166.878" transform="translate(29.197)" fill="#39b54a"/><rect width="3.006" height="83.153" transform="translate(0.143 41.934)" fill="#39b54a"/><rect width="3.006" height="55.244" transform="translate(93.744 57.248)" fill="#39b54a"/></g></g><g transform="translate(1220.205 2152.336)"><ellipse cx="101.516" cy="101.515" rx="101.516" ry="101.515" transform="translate(240.188 240.188) rotate(-180)" fill="#33b86c"/><g transform="translate(105.379 93.686)"><path d="M15.41,28.853h0c0,4.328-.028,8.656.028,12.984a14.857,14.857,0,0,0,3.183,9.047c4.607,6.031,10.834,7.93,18.093,6.534A16.513,16.513,0,0,0,50.089,41.529q.168-12.774-.028-25.549A15.794,15.794,0,0,0,44.448,4.226C40.567.763,35.932-.242,30.85.065c-8.1.475-15.3,7.734-15.413,15.8C15.354,20.2,15.41,24.525,15.41,28.853ZM32.5,94.022c4.272,0,8.572.028,12.844,0a3.876,3.876,0,0,0,4.188-3.909,3.968,3.968,0,0,0-4.188-4.049c-2.429-.028-4.83-.056-7.26,0-1.005.028-1.4-.307-1.4-1.368.056-3.267.056-6.506,0-9.773-.028-.977.307-1.368,1.312-1.508a30.94,30.94,0,0,0,15.58-6.953A31.838,31.838,0,0,0,65.474,41.641,5.493,5.493,0,0,0,64.5,38.57a3.536,3.536,0,0,0-4.384-1.089A3.814,3.814,0,0,0,57.6,41.138,24.748,24.748,0,0,1,46.961,61.465c-9.884,7.176-24.543,5.556-32.585-3.6A25.764,25.764,0,0,1,7.871,41.055a3.989,3.989,0,0,0-4.049-3.937A3.978,3.978,0,0,0,0,41.11,31.4,31.4,0,0,0,5.246,59.036,31.946,31.946,0,0,0,27.528,73.388c.921.14,1.284.447,1.256,1.4-.056,3.295-.028,6.617,0,9.912,0,.949-.307,1.34-1.284,1.312-2.429-.056-4.83-.028-7.26,0a5.763,5.763,0,0,0-2.178.363,3.967,3.967,0,0,0,1.7,7.567C24.037,94.022,28.282,94.022,32.5,94.022Z" transform="translate(0.005 -0.013)" fill="#fff"/></g></g><g transform="translate(1269.812 2023.954)"><g transform="translate(0 0)"><path d="M128.3,70.3l4.863.3a15.884,15.884,0,0,0-.76,10.029S129.364,78.658,128.3,70.3Z" transform="translate(66.663 36.434)" fill="#2b2a26"/><path d="M179.4,216.614c1.672,1.216,13.372,13.372,13.372,13.372l6.23-8.814L187.758,207.8Z" transform="translate(93.214 107.877)" fill="#fb8c66"/><path d="M156.987,188.412l-2.887,3.647.152,10.637s1.672,5.015,1.975,4.711,6.838-2.583,6.838-2.583l7.446-2.127s-5.319-10.333-5.622-10.789a40.16,40.16,0,0,0-4.407-4.407C160.178,187.652,156.987,188.412,156.987,188.412Z" transform="translate(80.069 97.329)" fill="#fb8c66"/><path d="M140.681,135.04,130.5,120.3l15.2,13.22Z" transform="translate(67.806 62.413)" fill="#2b2a26"/><path d="M199.292,239.307l-12.157-15.044s-1.52-8.814,7.142-8.358c0,0,14.436,6.838,17.171,7.75,0,0,14.892,2.127,9.118,11.245C220.718,235.053,209.625,251.92,199.292,239.307Z" transform="translate(97.18 112.08)" fill="#fd3522"/><path d="M213.771,217.709l27.353-77.8s4.1-20.666-19.147-26.441c0,0-70.2-20.666-130.077.76l.456,12.916s0,8.054,18.691,25.073L157.7,199.322l23.25,26.9,19.6,20.514s11.093,20.97,21.274,28.72c1.064-.456,14.436-16.26,14.436-16.26L211.34,222.268l-4.559-7.75-15.044-25.377-40.421-59.872,14.436,12.461,41.181,1.064-11.245,53.186s4.863,10.485,7.6,14.588l8.662,9.877,1.823-2.735" transform="translate(47.75 54.204)" fill="#26f"/><path d="M74.073,53.783s-4.1-5.319-6.99-8.662c0,0-2.583-1.216-2.583-5.167.152-3.8,4.407-1.52,4.711-.456s2.127,2.279,2.279,1.064-1.672-3.951-5.167-6.382l.3-6.078s14.588,3.039,23.25-7.9l3.951,6.838L95.2,32.661a27.3,27.3,0,0,1-1.064,21.426S88.358,63.964,79.088,55.3Z" transform="translate(33.513 10.402)" fill="#ff8b61"/><path d="M71.056,41.4,70.6,46.415l2.279,12.157s9.877,5.015,10.485,4.863,13.068-1.672,13.068-1.672l6.382-6.838s-5.471-8.662-5.926-8.966-5.167-1.368-5.167-1.368l-1.52-.76Z" transform="translate(36.683 21.418)" fill="#ff8b61"/><path d="M23.554,165.475s-3.951,7.6-3.5,1.823l.3-5.471S3.343,163.956,0,165.171c0,0,.152-5.471,9.725-12,0,0,6.534-2.887,12-2.431l16.26-27.353A183.492,183.492,0,0,1,52.578,95.27L65.646,74.3l17.931,9.573L74.308,98.158a134.819,134.819,0,0,1-28.264,39.813s-10.333,7.75-13.676,13.98Z" transform="translate(0 38.512)" fill="#ff8c62"/><path d="M111.2,95.708c0,.456,3.039,6.534,29.176,17.931,0,0,8.358,6.078,12.157-3.191,0,0,8.814-6.686,14.74-49.994,0,0,4.255-1.672,6.078-9.118,0,0,3.039-3.951,2.735-15.348,0,0,.152-6.382-1.216-5.774l-9.118,26.745L159.219,52.4l4.559-14.74s1.975-7.75-2.583-3.039c0,0-2.127,6.078-5.015,7.9l.608,14.74s-2.735,14.436-7.9,20.514c0,0-9.877,14.436-7.6,23.706,0,0-3.343-5.774-4.1-10.333-.152-1.216-16.564-13.828-16.564-13.828Z" transform="translate(57.778 15.584)" fill="#ff8b61"/><path d="M152.838,27.164s-10.029,27.353-9.118,27.5c.76.152,3.343,3.191,5.015,4.407a1.235,1.235,0,0,0,1.52,0L161.5,26.1Z" transform="translate(74.645 13.468)" fill="#2b2a26"/><path d="M151.838,27.164s-10.029,27.049-9.118,27.5a77.892,77.892,0,0,1,6.534,4.407L160.5,26.1Z" transform="translate(74.125 13.468)" fill="#f2f2f2"/><path d="M114.478,107.4s-15.2,13.524-16.26,14.588c-1.216.912,18.235-8.966,21.73-13.828" transform="translate(51.005 55.71)" fill="none" stroke="#2b2a26" stroke-miterlimit="10" stroke-width="1"/><path d="M108.8,133.9l48.931,52.122,51.666,61.7" transform="translate(56.531 69.48)" fill="none" stroke="#2b2a26" stroke-miterlimit="10" stroke-width="1"/><path d="M176.8,219.532c.76-.912,12.917-14.132,12.917-14.132" transform="translate(91.863 106.63)" fill="none" stroke="#2b2a26" stroke-miterlimit="10" stroke-width="1"/><path d="M160.047,161.9c-.3,1.368-3.647,14.284-3.647,14.284" transform="translate(81.264 84.028)" fill="none" stroke="#2b2a26" stroke-miterlimit="10" stroke-width="1"/><path d="M173.986,122.9,167.3,132.929s8.054-2.887,8.358-2.127" transform="translate(86.927 63.764)" fill="none" stroke="#2b2a26" stroke-miterlimit="10" stroke-width="1"/><path d="M184.78,203.985l21.426-67.318s5.167-14.74-8.054-9.877c0,0-45.284,9.269-65.494-1.064,0,0-.456-12.613-8.358-21.426" transform="translate(64.585 54.1)" fill="none" stroke="#2b2a26" stroke-miterlimit="10" stroke-width="1"/><path d="M116.2,117.1c1.824.3,19.451,2.887,19.451,2.887l-12.916,1.368" transform="translate(60.376 60.75)" fill="none" stroke="#2b2a26" stroke-miterlimit="10" stroke-width="1"/><path d="M160.3,162.8s3.039,13.524,18.083,24.313l-2.735,5.318S160.3,174.8,160.3,162.8Z" transform="translate(83.29 84.496)" fill="#2b2a26"/><path d="M196.7,236.025l4.559.152a7.356,7.356,0,0,0,5.47-2.431,12.612,12.612,0,0,0,3.039-5.167c1.064-4.1,2.279-4.863,4.711-4.559" transform="translate(102.203 116.274)" fill="none" stroke="#1161ff" stroke-miterlimit="10" stroke-width="1"/><path d="M201.09,218.6s-5.622,4.1-6.99,7.294" transform="translate(100.852 113.489)" fill="none" stroke="#1161ff" stroke-miterlimit="10" stroke-width="1"/><path d="M202.678,219.7s-5.167,3.495-6.078,6.23" transform="translate(102.151 114.06)" fill="none" stroke="#1161ff" stroke-miterlimit="10" stroke-width="1"/><path d="M205.45,220.4s-6.838,4.407-7.75,8.966" transform="translate(102.723 114.424)" fill="none" stroke="#1161ff" stroke-miterlimit="10" stroke-width="1"/><path d="M74.805,43.46c-.456-.456,9.877,5.926,13.828-.76C88.633,42.549,87.114,54.857,74.805,43.46Z" transform="translate(38.86 22.093)" fill="#2c2c2c"/><path d="M43.2,74.4S57.788,84.885,60.219,85.493l1.216-1.672Z" transform="translate(22.446 38.564)" fill="#2b2b2b"/><path d="M70.655,102.593S55.46,98.643,39.2,86.486c0,0,4.863-4.407,11.093-18.387S65.945,44.241,72.631,43.785l14.588.456s.608,1.975.608,2.127a19.892,19.892,0,0,0,3.647,5.622,15.927,15.927,0,0,0,18.843,4.559,4.22,4.22,0,0,0,2.735-4.711c-.152-2.127-1.975-8.054-4.863-8.054l25.529-.76s2.431-2.583,29.328,22.642c0,0-5.167,20.211-12.613,23.1l-6.99-7.6,24.01,38.294,1.368,4.863s16.108,2.583,13.676,12c0,0-42.548,1.368-63.215,9.877,0,0-.912,14.436,1.824,17.779s-19.6,1.672-20.363-4.559l.456-14.436s-17.323-24.617-21.73-49.539c0,0-2.127-4.863-5.015.3S70.655,102.593,70.655,102.593Z" transform="translate(20.368 22.223)" fill="#46dbb4"/><path d="M158.912,189.4l-7.446,1.368s-5.926-.608-3.343,8.054c0,0,3.039,5.471,5.015,6.534,0,0,2.127,3.343,2.279,10.941s4.1,16.108,15.2,17.019V221.007s-2.279-15.044.912-18.539c0,0-1.672-5.926-8.814-.76C162.711,201.709,156.937,203.532,158.912,189.4Z" transform="translate(76.624 98.317)" fill="#fd3522"/><path d="M150.7,193.1s1.52,7.446,4.1,12c1.824,3.343,1.975,9.573,1.824,12.765a6.527,6.527,0,0,0,1.064,3.8c1.672,2.431,4.863,6.534,8.206,7.142" transform="translate(78.302 100.239)" fill="none" stroke="#1161ff" stroke-miterlimit="10" stroke-width="1"/><path d="M159.9,203.439s2.583-.912,3.343,0" transform="translate(83.082 105.4)" fill="none" stroke="#1161ff" stroke-miterlimit="10" stroke-width="1"/><path d="M160.5,204.839s2.583-.912,3.343,0" transform="translate(83.394 106.128)" fill="none" stroke="#1161ff" stroke-miterlimit="10" stroke-width="1"/><path d="M160.6,206.939s2.583-.912,3.343,0" transform="translate(83.446 107.219)" fill="none" stroke="#1161ff" stroke-miterlimit="10" stroke-width="1"/><path d="M75.729,61.056a28.7,28.7,0,0,1-16.867-11.4,9.711,9.711,0,0,1-1.216-2.887c-.608-3.343-1.672-11.093-.456-13.524,0,0,2.735-6.838,7.142-7.75,0,0-3.039-12.613,5.774-18.995a3.809,3.809,0,0,1,2.887-.76,6.009,6.009,0,0,1,4.559,2.279L79.376,10s2.887-1.368-.912-6.23c0,0,3.5.456,4.255,2.127,0,0,.456-4.255-2.127-5.774,0,0,13.068-1.824,18.235,14.892a8.414,8.414,0,0,1,.3,2.735c-.608,5.622-4.559,24.617-28.264,20.97L70.715,44.8l4.255,3.8a3.172,3.172,0,0,1,1.216,2.431c0,.912-.608,1.672-3.039-.152,0,0-5.471-2.583-4.1.152Z" transform="translate(29.426 -0.062)" fill="#2b2b2b"/><path d="M75.522,20.213,69.9,33.737S94.213,25.227,80.993,7.6" transform="translate(36.319 3.855)" fill="none" stroke="#ededed" stroke-miterlimit="10" stroke-width="0.5"/><line x2="5.622" y2="7.75" transform="translate(94.214 27.563)" fill="none" stroke="#ededed" stroke-miterlimit="10" stroke-width="0.5"/><path d="M107.8,68.1l6.99,7.6-.456,2.735Z" transform="translate(56.012 35.291)" fill="#2b2a26"/></g><path d="M148.269,44.187c-.152,1.672-1.672,2.735-3.039,1.975a2.2,2.2,0,0,1-.608-3.039,2.294,2.294,0,0,1,2.127-1.216A1.964,1.964,0,0,1,148.269,44.187Z" transform="translate(74.959 21.669)" fill="#39b54a"/><g transform="translate(220.34 64.641)"><path d="M146.672,43.456h-.152v.152c0,.152,0,.152-.152.3a.731.731,0,0,1-.912.3c-.3-.152-.3-.456-.3-.76,0-.152.152-.3.152-.456h-.152a.53.53,0,0,1-.152.3v.608a.327.327,0,0,0,.3.3h0a.149.149,0,0,1-.152.152H145v.152l.608.3v-.152h-.152a.149.149,0,0,1,.152-.152h0c.3,0,.76-.152.76-.456.3-.3.3-.456.3-.608Z" transform="translate(-145 -42.392)" fill="#fff"/><path d="M146.277,43.512c0,.152-.152.3-.152.456s-.3.3-.456.3c-.3,0-.608-.3-.456-.608s.152-.456.3-.76c0-.152.3-.3.456-.3.3,0,.456.3.456.608,0,.152,0,.152-.152.3Z" transform="translate(-144.91 -42.6)" fill="#fff"/></g><path d="M148.96,27.164l8.814-1.064-.912,2.735-8.662.76Z" transform="translate(77.003 13.468)" fill="#39b54a"/></g></g></svg>